# xmcd CD database file
#
# Track frame offsets:
#	150
#	33870
#	46077
#	58701
#	68031
#	82363
#	89838
#	99968
#	111218
#	123498
#	136476
#	151510
#
# Disc length: 2339 seconds
#
# Revision: 0
# Processed by: cddbd v1.5.1PL2 Copyright (c) Steve Scherf et al.
# Submitted via: CDex 1.51
#
DISCID=9c09210c
DTITLE=Ray Charles - Vintage Vaults - Volume 1
DYEAR=2005
DGENRE=Jazz
TTITLE0=Georgia On My Mind (Live)
TTITLE1=Honey Honey
TTITLE2=Rockin' Chair Blues
TTITLE3=All By Myself Alone
TTITLE4=Kissa Me Baby
TTITLE5=Ray's Blues (Instrumental)
TTITLE6=I'm Movin"On (Live)
TTITLE7=A Sentimental Blues
TTITLE8=Going Down Slow
TTITLE9=Don't Put All Your Dreams In One Basket	
TTITLE10=Let's Go Get Stoned (Live)
TTITLE11=Night Time Is The Right Time (Live)
EXTD=YEAR: 2005
EXTT0=
EXTT1=
EXTT2=
EXTT3=
EXTT4=
EXTT5=
EXTT6=
EXTT7=
EXTT8=
EXTT9=
EXTT10=
EXTT11=
PLAYORDER=
